<!-- aquarium-background.svg -->
<svg
  width="800"
  height="600"
  viewBox="0 0 800 600"
  xmlns="http://www.w3.org/2000/svg"
>
  <title>Aquarium Background</title>

  <!-- Gradient Definition -->
  <defs>
    <linearGradient id="waterGradient" x1="0" y1="0" x2="0" y2="1">
      <stop offset="0%" stop-color="#00BFFF" />
      <stop offset="100%" stop-color="#008080" />
    </linearGradient>
  </defs>

  <!-- Background Rectangle -->
  <rect
    x="0"
    y="0"
    width="800"
    height="600"
    fill="url(#waterGradient)"
  />

  <!-- Sand (Bottom) -->
  <path
    d="M 0 500 Q 150 540 300 510 T 600 520 Q 700 540 800 520 L 800 600 L 0 600 Z"
    fill="#F4A460"
  />

  <!-- Seaweed #1 -->
  <path
    d="M 100 500 C 110 480, 90 450, 100 430
       C 120 400, 95 370, 115 350
       C 130 330, 115 310, 130 290
       C 140 280, 155 280, 160 265
       L 165 300
       C 160 320, 170 340, 160 360
       C 150 380, 170 400, 150 420
       C 130 440, 140 460, 130 480
       C 120 490, 105 490, 100 500
       Z"
    fill="#228B22"
  />

  <!-- Seaweed #2 -->
  <path
    d="M 200 520
       C 220 490, 205 470, 215 445
       C 225 420, 205 390, 230 370
       C 240 360, 245 350, 255 340
       L 260 370
       C 255 390, 270 420, 245 435
       C 220 450, 235 465, 220 490
       C 210 510, 210 510, 200 520
       Z"
    fill="#2E8B57"
  />

  <!-- Seaweed #3 -->
  <path
    d="M 700 540
       C 690 520, 710 500, 695 480
       C 680 460, 695 440, 680 420
       C 670 410, 665 400, 660 390
       C 650 370, 660 350, 650 330
       L 655 300
       C 665 330, 660 360, 685 380
       C 700 400, 685 420, 700 440
       C 715 460, 695 480, 720 500
       C 735 510, 715 520, 700 540
       Z"
    fill="#006400"
  />

</svg>
